<svg width="500" height="440" viewBox="0 0 500 440" fill="none" xmlns="http://www.w3.org/2000/svg">
<path d="M204.969 1.30529C195.901 4.35462 186.708 12.9723 183.106 21.9877C180.248 29.4121 180.373 41.742 183.478 49.1665C187.081 57.9167 191.801 63.2199 199.379 67.1973L206.211 70.6444V95.039V119.301L173.665 119.699L140.994 120.096L133.913 123.809C125.59 128.184 120.124 134.415 115.652 144.624L112.422 151.916V220.194V288.472L115.652 295.764C120.124 305.973 125.59 312.204 133.913 316.579C140.621 320.159 141.988 320.292 160.994 320.689L180.994 321.22L183.478 326.788C189.689 340.311 200.87 348.001 214.161 347.868C223.354 347.735 229.068 345.349 236.025 338.72C242.609 332.356 246.087 325.064 246.832 315.651C249.193 289.003 223.106 269.116 200.621 280.385C193.665 283.832 186.087 292.052 183.354 299.079L181.491 303.719H162.733C148.944 303.719 143.106 303.189 140.621 301.863C136.149 299.344 130.932 293.245 129.317 288.738C128.447 286.219 127.95 262.752 127.95 220.194C127.95 177.636 128.447 154.169 129.317 151.65C130.932 147.01 136.025 141.177 140.994 138.26C144.224 136.271 150.186 136.006 182.857 135.608L220.87 135.211L221.739 131.631C222.236 129.642 222.36 115.191 222.236 99.5467L221.863 71.0421L227.329 67.9928C243.602 58.9774 250.807 41.3443 245.342 23.8438C240 6.87363 220.87 -3.86531 204.969 1.30529ZM218.509 17.3474C224.348 19.0709 229.565 24.7719 231.18 31.1357C234.037 42.1398 226.335 53.0113 215.031 54.0719C195.776 55.7955 188.944 27.1583 206.584 18.6732C212.671 15.6239 213.043 15.6239 218.509 17.3474ZM218.509 294.439C224.348 296.162 229.565 301.863 231.18 308.227C234.037 319.231 226.335 330.102 215.031 331.163C196.025 332.887 189.068 305.31 206.211 296.029C212.547 292.715 212.795 292.715 218.509 294.439Z" fill="#9466FF"/>
<path d="M80.7453 17.4799C61.2422 21.0596 49.441 32.8592 43.8509 54.6022C41.8633 62.0267 41.7391 67.3298 42.236 98.2209C43.2298 155.363 42.9814 183.204 41.2422 189.17C37.2671 203.622 28.8199 209.588 11.1801 210.648L0 211.311V220.194V229.077L9.06832 229.872C14.1615 230.27 20.6211 231.331 23.6025 232.259C31.0559 234.645 39.0062 243.13 41.118 250.687C42.9814 257.184 43.2298 280.915 42.236 340.841C41.7391 371.202 41.9876 377.036 43.7267 384.195C50.6832 410.976 65.7143 423.041 92.9192 423.438L103.727 423.704L104.099 415.351L104.472 407.131H99.6273C87.2049 407.131 74.1615 402.623 68.6956 396.26C62.236 388.835 60.3727 381.278 59.8758 360.065C59.6273 349.061 60 325.86 60.6211 308.359C62.7329 253.604 59.0062 236.369 42.6087 226.558C39.0062 224.437 35.7764 222.05 35.4037 221.387C35.031 220.724 37.1428 219.001 40.2484 217.542C58.6335 208.262 62.8571 191.822 60.8695 136.536C59.1304 90.6638 59.3789 69.4511 61.4907 60.4357C65.59 43.5981 74.1615 36.4388 93.2919 34.0524L104.472 32.7266L104.099 24.6392L103.727 16.6845L95.6521 16.4193C91.1801 16.4193 84.472 16.817 80.7453 17.4799Z" fill="#9466FF"/>
<path d="M401.242 35.2457C399.876 39.2231 399.752 41.8746 400.745 45.9846C401.366 48.371 402.733 48.9014 410.683 49.5643C421.863 50.6249 427.702 53.1439 433.789 59.3751C442.733 68.6557 442.857 70.3792 442.484 134.15C441.988 193.148 442.484 200.97 447.329 211.046C450.062 216.747 456.894 223.509 462.733 226.16C468.075 228.547 468.199 229.74 462.981 232.391C456.522 235.706 451.056 241.274 447.95 247.903C442.236 259.703 441.863 265.934 442.733 322.28C443.478 368.02 443.354 375.71 441.615 382.604C437.764 398.116 427.826 406.07 411.429 406.866C403.23 407.396 402.236 407.794 401.242 410.446C399.752 414.688 401.118 423.041 403.478 424.101C404.472 424.499 410.559 424.101 417.019 423.306C436.77 420.919 447.702 413.362 454.783 397.32C460.745 383.797 461.491 373.323 459.876 322.545C458.509 277.071 459.006 263.282 462.609 254.267C466.335 244.589 475.528 239.153 490.435 237.695L500 236.766V228.149V219.531L488.82 218.868C477.143 218.073 472.174 216.217 467.578 210.648C459.379 201.103 458.012 189.038 459.752 137.597C461.739 80.3227 460.497 67.1973 451.801 52.6136C444.596 40.5489 432.795 34.4502 412.795 32.5941L402.484 31.666L401.242 35.2457Z" fill="#9466FF"/>
<path d="M284.099 93.0503C277.019 94.9064 273.044 97.4254 267.578 103.789C260.497 112.009 257.888 119.964 258.634 130.703C260.994 161.461 296.398 174.322 315.776 151.518C318.261 148.601 320.994 144.093 321.863 141.442C322.981 138.26 324.472 136.271 326.46 135.741C332.05 134.283 355.652 136.139 359.627 138.26C364.472 141.044 369.689 147.01 371.304 151.65C372.174 154.169 372.671 177.636 372.671 220.194C372.671 262.752 372.174 286.219 371.304 288.738C370.683 290.726 368.571 294.173 366.708 296.162C360.124 303.719 359.752 303.719 319.379 303.719C298.882 303.719 281.367 304.117 280.249 304.515C278.509 305.177 278.261 309.42 278.261 337.394V369.611L271.926 372.66C264.845 376.24 257.888 383.797 254.907 391.089C252.05 398.116 252.298 411.771 255.404 419.063C266.708 445.579 301.739 447.303 314.658 421.98C323.975 403.817 317.267 382.074 299.379 372.263L293.789 369.081V345.349V321.617L326.708 320.954L359.627 320.292L366.708 316.579C375.031 312.204 380.497 305.973 384.969 295.764L388.199 288.472V220.194V151.916L384.969 144.624C380.497 134.415 375.031 128.184 366.708 123.809C360.124 120.362 358.385 120.097 341.863 119.699L324.224 119.168L320.994 112.142C319.255 108.164 316.149 103.392 313.913 101.403C305.714 93.9784 293.416 90.5313 284.099 93.0503ZM300.373 111.479C308.944 117.047 311.553 127.388 306.708 136.669C298.261 152.711 275.901 147.806 273.789 129.245C272.05 114.528 288.323 103.657 300.373 111.479ZM294.037 388.172C299.752 390.956 303.106 397.055 303.106 404.214C303.106 415.218 295.901 423.438 286.46 423.438C275.776 423.438 268.323 415.616 268.323 404.214C268.323 399.044 269.068 397.055 272.298 393.078C274.534 390.426 277.391 387.774 278.758 387.244C282.981 385.388 289.441 385.786 294.037 388.172Z" fill="#9466FF"/>
</svg>
